<svg id="pokemon-23" xmlns="http://www.w3.org/2000/svg" xmlns:xlink="http://www.w3.org/1999/xlink" width="269.349" height="98.8" viewBox="0 0 269.349 98.8">
  <defs>
    <linearGradient id="linear-gradient" x1="25.402" y1="-27.615" x2="24.806" y2="-26.84" gradientUnits="objectBoundingBox">
      <stop offset="0" stop-color="#0070b6"/>
      <stop offset="1" stop-color="#1d2c5e"/>
    </linearGradient>
    <linearGradient id="linear-gradient-2" x1="18.366" y1="-25.301" x2="18.919" y2="-24.721" xlink:href="#linear-gradient"/>
    <linearGradient id="linear-gradient-3" x1="66.167" y1="-41.114" x2="65.927" y2="-40.298" xlink:href="#linear-gradient"/>
    <linearGradient id="linear-gradient-4" x1="68.303" y1="-39.84" x2="68.204" y2="-39.121" gradientUnits="objectBoundingBox">
      <stop offset="0" stop-color="#125d9e"/>
      <stop offset="1" stop-color="#1d2c5e"/>
    </linearGradient>
    <linearGradient id="linear-gradient-5" x1="34.961" y1="-12.021" x2="33.893" y2="-12.433" xlink:href="#linear-gradient-4"/>
    <linearGradient id="linear-gradient-6" x1="12.458" y1="-29.794" x2="12.728" y2="-30.563" gradientUnits="objectBoundingBox">
      <stop offset="0" stop-color="#105fa1"/>
      <stop offset="1" stop-color="#1d2c5e"/>
    </linearGradient>
    <linearGradient id="linear-gradient-7" x1="9.092" y1="-13.826" x2="9.317" y2="-14.325" xlink:href="#linear-gradient-6"/>
    <linearGradient id="linear-gradient-8" x1="35.805" y1="136.086" x2="36.807" y2="136.086" gradientUnits="objectBoundingBox">
      <stop offset="0" stop-color="#3c5aa6"/>
      <stop offset="0.933" stop-color="#2b73b9"/>
      <stop offset="1" stop-color="#2a75bb"/>
    </linearGradient>
    <linearGradient id="linear-gradient-9" x1="2.143" y1="21.469" x2="3.144" y2="21.469" xlink:href="#linear-gradient-8"/>
  </defs>
  <path id="polygon16" d="M0,36.6,12,56.9l4.8-4.6L3.7,32.8Z" fill="url(#linear-gradient)"/>
  <path id="polygon18" d="M178.6,20.6l-.5,2.7,5.7-1.9-.7-3.3Z" fill="#0071b9"/>
  <path id="polygon25" d="M145,2.3,126.5,23.5l5.4-1.5L149.5,0Z" fill="url(#linear-gradient-2)"/>
  <path id="polygon27" d="M244.1,31.3l4.5-2.4-1.3,11.4Z" fill="#1d2c5e"/>
  <path id="polygon29" d="M215.8,38.6l4.1.9L225,37l-4.5-1.7Z" fill="#1d2c5e"/>
  <path id="polygon36" d="M76.6,26.6l.6,13.1,5.7-2.2L81.2,24.1Z" fill="url(#linear-gradient-3)"/>
  <path id="polygon43" d="M220.2,22.6l-4.5,2.5.1,13.5,4.6-2.3,1.4-6.6Z" fill="url(#linear-gradient-4)"/>
  <path id="polygon45" d="M219.6,39.5l-5,44.4,8-1.6,1.5-45.2Z" fill="#312370"/>
  <path id="polygon47" d="M229.3,86l.2,6,15.3,4.9,4.6-2.4L234.3,82.8l-15.2-1.3-4.5,2.4Z" fill="#21386e"/>
  <path id="polygon49" d="M172.5,75.4l3.7-2,2.5,4.4,3.5-1.9.7,5.8,22.3,4,4.4-2.5L178.9,64.5l-21.8,3.7-4.2,4.1Z" fill="#21386e"/>
  <path id="polygon56" d="M165.4,20.8l-4.5,2.5-8,49,4.5-2.4,7.7-27.5Z" fill="url(#linear-gradient-5)"/>
  <path id="polygon58" d="M129.8,27.4l-3.6,1.9.3,1.2,8.5-5.4-3.7-4-4.8,2.4Z" fill="#1d2c5e"/>
  <path id="polygon60" d="M139.5,85.3l-36.3-18,4.5-3.5,36.3,19Z" fill="#21386e"/>
  <path id="polygon62" d="M106.6,18.3l-5.5,10.4,5.8-1.7,4.2-11.2Z" fill="#1d2c5e"/>
  <path id="path69" d="M56.6,61.4,52,64.6a71.614,71.614,0,0,0,2.3,8.8,19.788,19.788,0,0,0,4.3,6.5,17.08,17.08,0,0,0,7,4.1,19.5,19.5,0,0,0,15.9-2.7,25.894,25.894,0,0,0,4.2-3.2c-4.9,3-29.1-16.7-29.1-16.7Z" fill="url(#linear-gradient-6)"/>
  <path id="polygon71" d="M81.5,38.7l4.2,46.7,17.4-2.5,4.6-2.4L86.2,35.9l-4.4,1.5-4.6,2.3Z" fill="#1d2c5e"/>
  <path id="polygon78" d="M16.5,54.9,35.9,98.8l18.4-5.9,4.5-3-38.2-40-4.8,2.9L12,56.9Z" fill="url(#linear-gradient-7)"/>
  <path id="path80" d="M208.4,75.6l.3,2.2a24.41,24.41,0,0,0,4.7-.9c1.7-.6,5.3-2.2,6.6-3.4-.6.2-9,2.4-11.6,2.1" fill="#1d2c5e"/>
  <path id="path82" d="M143.3,64.4l.7,3.5a28.131,28.131,0,0,0,10.1-3.8c2-1.2,4.1-2.9,4.8-3.4-.5.3-15.6,3.7-15.6,3.7Z" fill="#1d2c5e"/>
  <g id="g84" transform="translate(-5.451 -1.686)">
    <path id="path86" d="M46.4,96.3,45,93.1l-18.4-41-.4-.8-.8.4-.6.3-3.3,1.6c-.5-.8-1.3-2.2-1.8-3.1L12.3,38l-1.9-3.3,3.2-2a69.375,69.375,0,0,1,10.2-5.3,57.345,57.345,0,0,1,21.8-4.8,44,44,0,0,1,6.5.5,20.343,20.343,0,0,1,9.2,3.3A20.239,20.239,0,0,1,70,36a18.347,18.347,0,0,1,.8,11.2l-.5,2.4,2-1.4a17.552,17.552,0,0,1,4.2-2.4,20.532,20.532,0,0,1,8-1.7,17.193,17.193,0,0,1,7.2,1.5l1.4.6L93,44.6l-.6-6.7-.1-1.1-1,.3-3.1.8-.5-11.4,22.8-7.3-.2,8.9,1.7.4,5-9.5,14.9,13.2.6.6.6-.6a23.345,23.345,0,0,1,7.2-4.6l1.1-.5-.8-1-2.7-3.3L155,3.1l9,13.4-13.7,7.4-3,1.6,3.5.1A21.006,21.006,0,0,1,167,33.3l1.4,1.8.9,1.1-1.5,1.6-1,1.1-3.4,3.7-.6.7.7.6,3.2,2.9,1.2,1.1.3-1.6,1.2-7.6.3-2,.3-2,1.8-11.3h17l.1-.8.3-1.9H204l3.6,22.6.2,1.5,1.2-.9a22.307,22.307,0,0,1,4.8-2.6,18.877,18.877,0,0,1,7-1.3,15.807,15.807,0,0,1,7.8,1.9c.1,0,.1.1.3.2l1.1.4.1-1.2.3-2.5.1-.8-.8-.2-3-.7-.1-11.8,22.9,5,1.7,8.5H253l1.8-7.3,19.1,4.6L254.3,95l-13.9-4.4-.1-5.4v-.8l-.8-.1-13.9-2,.8-7.1.2-1.7-1.5.8a9.493,9.493,0,0,1-2.1.9,18.741,18.741,0,0,1-6.9,1.3,13.4,13.4,0,0,1-2-.1l-1.2-.1.2,1.2,1,6.2-20.3-3.6-1.1-9.2-.3-3L191,70.5,188.7,75l-4.3-7.9-1.3-2.4-.4,2.7-.9,6.1L164,70.7l1.4-8.4.3-1.9-1.7,1a36.192,36.192,0,0,1-10.2,4,29.673,29.673,0,0,1-4.3.7l-.8.1V83l-35-17.3-1.3-.6V81.4L96.7,83.7,96,76.6l-.2-1.9L94.4,76a24.152,24.152,0,0,1-6.9,4.7,20.433,20.433,0,0,1-7.9,1.7,18.662,18.662,0,0,1-7.5-1.6,16.087,16.087,0,0,1-8.6-10.4,17.658,17.658,0,0,1-.5-6.9l.3-2.5-1.8,1.8a48.666,48.666,0,0,1-4.2,3.5l-.5.4.2.6,5.3,20.2.9,3.6-3.5,1.1-9.9,3.2-3.4.9ZM50.8,42a9.151,9.151,0,0,0-1.6.1l-.7.1-1,.2.3,1,.2.6,2.8,9.3.3.9.4,1.3,1-.9.7-.6c2.8-2.5,3.7-5,3.1-8.2a4.5,4.5,0,0,0-2.7-3.2,5.545,5.545,0,0,0-2.8-.6Zm76.2.3L125.2,44l-4.7,4.5-1,1,1.3.5,5,1.9,1.5.6-.3-1.6a21.711,21.711,0,0,1-.3-6.2Zm20.4-5.2a6.766,6.766,0,0,0-5.1,2.3,7.128,7.128,0,0,0-1,8.1l.4.7.6,1.1.9-1,.6-.6,6.9-7.8.5-.6.9-1-1.2-.5-.8-.3a13.574,13.574,0,0,0-2.7-.4Z" fill="#ffcb05"/>
  </g>
  <path id="path88" d="M152.4,47l-.2.2A.215.215,0,0,0,152.4,47Z" fill="#7d7f68"/>
  <path id="polygon90" d="M158.4,41.6l3.4-3.7-1.2,1.2V39l-1,1.1-3.4,3.6,3.2,2.9L160,43l1.6,1.4Z" fill="#7d7f68"/>
  <path id="polygon92" d="M158.4,41.6l3.2,2.8,1.2-7.6-1,1.1Z" fill="#7d7f68"/>
  <path id="path94" d="M115.7,47.5Z" fill="#7d7f68"/>
  <path id="path96" d="M134.7,50.7c.3.3,0,.1.3.3l2.1-1.5c-.3-.2-.6-.5-.9-.7-3-2.8-2.2-9-.3-12.4-5.2,4.2-4.9,10.6-1.2,14.3" fill="#c7a008"/>
  <path id="path98" d="M160,54.2a30.19,30.19,0,0,1-12.6,6,13.224,13.224,0,0,1-3.3.5c-8.3.8-15.2-3-17.8-9.1a15.546,15.546,0,0,1-.8-2.3,16.375,16.375,0,0,1,2.4-13.5,8.745,8.745,0,0,1,.8-1c-.1.1-.3.2-.4.3a14.235,14.235,0,0,0-2.6,2.9,16.3,16.3,0,0,0-2.4,13.5,8.955,8.955,0,0,0,.8,2.3c2.6,6.2,9.6,10,17.8,9.2a22.141,22.141,0,0,0,3.4-.6c5.2-1.3,9.2-3.1,12.6-6,.8-.7,1.7-1.5,2.5-2.3l-.1-.1c-.2.1-.3.1-.3.2" fill="#c7a008"/>
  <path id="polygon100" d="M101.7,38.5l9.2-13-.4-.3-8.9,12.5Z" fill="#c7a008"/>
  <path id="polygon102" d="M162.8,36.8l-1.2,7.6L160,43l-.6,3.6-3.2-2.9,3.4-3.6,1-1.1v.1l1.2-1.2Z" fill="#c7a008"/>
  <path id="polygon104" d="M151.4,15.4l3.2-1.4-5.9-7.6-1.9,2.8Z" fill="#c7a008"/>
  <path id="path106" d="M61.8,34.2c-15-18.2-41.9-8.4-51.5.1l.4.7a76.133,76.133,0,0,1,7-3.5c9.6-4.1,18.8-5.3,26.1-4a17.4,17.4,0,0,1,7.7,2.7,16.919,16.919,0,0,1,7.3,7.9c2.6,6,.3,14-5.8,20.6,7.7-7.1,13-13.9,8.8-24.5Z" fill="#c7a008"/>
  <path id="path108" d="M92.3,55.4c-.1-.3-.1-.7-.2-1a12.052,12.052,0,0,0-5-7c-3.8-2.6-9.2-3.1-14.5-.9a21.061,21.061,0,0,0-7.2,5.3,19.9,19.9,0,0,1,5-3.1c5.3-2.3,10.7-1.7,14.5.9a12.052,12.052,0,0,1,5,7,3.553,3.553,0,0,1,.2,1,20.679,20.679,0,0,1,.3,3.5,18.608,18.608,0,0,1-3.5,10,13.444,13.444,0,0,1-1.1,1.4A21.1,21.1,0,0,0,89,69a18.738,18.738,0,0,0,3.6-10,21.862,21.862,0,0,0-.3-3.6" fill="#c7a008"/>
  <path id="path110" d="M77.6,51s2.2-2.2,2.1-2.2c-2.7-.1-3.9,2.5-4,2.7a5.918,5.918,0,0,1,1.9-.5" fill="#c7a008"/>
  <path id="path112" d="M82.7,54.1a4.253,4.253,0,0,1,.2,1.1,2.934,2.934,0,0,1-.4,1.6c.4-.2,3.6-1.8,2.4-5,.1.2-2.3,2.3-2.2,2.3" fill="#c7a008"/>
  <path id="path114" d="M70.3,56c0-1.3,2.3-4.6,3-5.7-3.6,2.3-5.2,5.4-5.2,7.8a7.907,7.907,0,0,0,8.1,7.6,10.324,10.324,0,0,0,8.4-5.1c-1.3.9-4.6,2.9-6.4,2.9A7.648,7.648,0,0,1,70.3,56" fill="#c7a008"/>
  <path id="polygon116" d="M101.2,59.8l.1,16.9,2.7.2-.6-19.3Z" fill="#c7a008"/>
  <path id="polygon118" d="M85.8,27.5V29l12.8-3.8.9,16.3,2.2-3-.5-16.3Z" fill="#c7a008"/>
  <path id="polygon120" d="M124.3,33.3l-11.9-11-1.5,3.2,10.6,9.9Z" fill="#c7a008"/>
  <path id="path122" d="M122.5,53.8l-14.1-4.7-2,2.2,14,5.6a19.124,19.124,0,0,0,7,7.4,22.276,22.276,0,0,0,9.8,3.2v6.9l2.2,1.1.7-10.4L122.5,53.8Z" fill="#c7a008"/>
  <path id="path124" d="M145.1,51.9a12.935,12.935,0,0,0,7.2-4.6c-1.3,1.1-7.7,2.5-8.8,2.8l-2.1,2.3a18.037,18.037,0,0,0,3.7-.5" fill="#c7a008"/>
  <path id="path126" d="M138.8,27.9c-6.4.8-9.7,6.2-10.2,6.8a19.82,19.82,0,0,1,8.6-4.2c7.9-1.9,14.8.5,19.1,5.8l2.7-2.2c-4.3-5.2-12.3-8.1-20.2-6.2" fill="#c7a008"/>
  <path id="path128" d="M160.2,54a26.393,26.393,0,0,0,2.9-2.1l-8.5-7.6c-.7.8-1.2,2.1-2,2.7l7.6,7Z" fill="#c7a008"/>
  <path id="path130" d="M203.9,74.4c-8.9-7.4-8.4-23.1-4-28.1L196,21.6l-8.6,1.1-.4,2.2h6.5L197,47.3c-4.4,5-6.5,11.7-5.1,17.9A16.056,16.056,0,0,0,200.2,76c.4.2.9.4,1.3.6l.1.3,2.6.4c-.1.1.2-2.7-.3-2.9Z" fill="#c7a008"/>
  <path id="polygon132" d="M169.6,25.2l-.4,2.2H179l2.9,15.9,2.2-2.2-2.3-16.8Z" fill="#c7a008"/>
  <path id="polygon134" d="M186.4,56l-3.2,8.2.8,2.2,4.5-12.5Z" fill="#c7a008"/>
  <path id="polygon136" d="M177,50.9l-2.2,2.2-2.4,14.8,2.3.8Z" fill="#c7a008"/>
  <path id="path138" d="M221.1,46.1a10.745,10.745,0,0,1,3.2,3.5,12.985,12.985,0,0,1,1.5,3.6,15.952,15.952,0,0,1-3,13.1,10.629,10.629,0,0,1-.9,1.1c1.1-1,15.1-11.3,1.5-24.8-15-4.9-20.7,4.8-21.2,5.5a18.373,18.373,0,0,1,5.4-3.2,14.09,14.09,0,0,1,13.5,1.2" fill="#c7a008"/>
  <path id="path140" d="M213.6,47.1c0,.1,2.2-2.2,2.2-2.2-2.7.1-4,1.4-3.8,2a2.506,2.506,0,0,0-.4.7,5.34,5.34,0,0,1,2-.5" fill="#c7a008"/>
  <path id="path142" d="M218.6,50.5a4.1,4.1,0,0,1,.1,1.1,3.255,3.255,0,0,1-.4,1.4,3.57,3.57,0,0,0,2.4-4.8c.1.2-2.2,2.3-2.1,2.3" fill="#c7a008"/>
  <path id="path144" d="M211.5,61.8c3,.1,6.4-1.7,8.8-5-6.1,1.3-12.6-9-12-10-2.3,1.7-4.4,4.9-4.5,7.2-.2,4.2,3.3,7.6,7.7,7.8" fill="#c7a008"/>
  <path id="polygon146" d="M245.2,88.5l1.4.9,17.6-52.8-13.2-3-.1,3.1L261.5,39Z" fill="#c7a008"/>
  <path id="polygon148" d="M224.3,27.9l.1,3,14,2.8,5.4,25.6,2.2-2.2-5.2-25.9Z" fill="#c7a008"/>
  <path id="polygon150" d="M235.1,57.1l-3.9,21.8,2.2.7,3.9-24.7Z" fill="#c7a008"/>
  <path id="polygon152" d="M53.4,86.9,46.9,63.1l-2.4,1.7,6.1,22.7Z" fill="#c7a008"/>
  <path id="path154" d="M51.7,51.2a47.984,47.984,0,0,1-6.8,5.9l-1.2-3.7-2.5-8.2-1.6-5.5-1.6,2,1.6,5.5,2.5,8.1L43.3,59a25.807,25.807,0,0,0,8.4-7.8" fill="#c7a008"/>
  <path id="path156" d="M144.5,37.1c-2.1-.8-5-.6-6.6,1.2a8.016,8.016,0,0,0-1.3,1.9,6.753,6.753,0,0,1,6-.8l1.9-2.3Z" fill="#7d7f68"/>
  <path id="path158" d="M49.9,44.5a4.03,4.03,0,0,0-2-2.5,7.354,7.354,0,0,0-4.2-.3c.2.8.5,1.8.6,2.2a12.859,12.859,0,0,1,1.9.4A2.986,2.986,0,0,1,48,46.5a6.474,6.474,0,0,1-.5,4.4,6.853,6.853,0,0,0,2.4-6.4" fill="#7d7f68"/>
  <g id="g160" transform="translate(-5.451 -1.686)">
    <g id="g162">
      <path id="path164" d="M58.6,46.1c-.9-4.8-7.2-7.5-13.5-4.1l1.6,5.5,2.5,8.2,1.2,3.7c4.7-2.9,9.4-6.6,8.2-13.3Zm-6.2,7.5c-.7-2.2-2.2-7-2.2-7s-.3-1-.7-2.2a6.125,6.125,0,0,1,3.6.4A2.986,2.986,0,0,1,54.9,47c.6,2.6-.3,4.6-2.5,6.6Z" fill="#3c5aa6"/>
    </g>
  </g>
  <g id="g166" transform="translate(-5.451 -1.686)">
    <g id="g168">
      <path id="path170" d="M153.2,38.5a8.563,8.563,0,1,0-11.6,12.6,5.5,5.5,0,0,0,.9.7L153.8,39A2.652,2.652,0,0,1,153.2,38.5Zm-10.6,9a5.471,5.471,0,0,1,.8-6.4,5.6,5.6,0,0,1,6.1-1.4l-6.9,7.8Z" fill="#3567b0"/>
    </g>
  </g>
  <path id="polygon172" d="M162.8,35.4l-6.2,6,5.9,5.3Z" fill="#1e2d5f"/>
  <path id="path174" d="M220.7,48.3a4.868,4.868,0,0,1,.1,1.2,4.888,4.888,0,1,1-5.2-4.5,7.719,7.719,0,0,0-1.5-.2c-4.5-.2-8.1,3-8.3,6.9a7.575,7.575,0,0,0,7.6,7.8,7.7,7.7,0,0,0,8.3-7.2,5.288,5.288,0,0,0-1-4" fill="#3466af"/>
  <path id="path183" d="M85.1,53.1a4.586,4.586,0,0,1-4.8,4.3,4.314,4.314,0,1,1-.4-8.6,7.569,7.569,0,0,0-1.5-.1c-4.5,0-8,3.3-8,7.3a7.963,7.963,0,0,0,15.9,0A7.068,7.068,0,0,0,85,52c0,.3.1.7.1,1.1" fill="url(#linear-gradient-8)"/>
  <g id="g185" transform="translate(-5.451 -1.686)">
    <g id="g187">
      <path id="path196" d="M254,30.6l-2,8.2-1.8-9.1-24.6-5.4.2,13.7,3.7.8-.3,2.5a.1.1,0,0,1-.1-.1,18.8,18.8,0,0,0-15.6-.6,21.856,21.856,0,0,0-5,2.7l-3.7-23.4H188.5l-.4,2.7H170.9l-2,12-1.4-1.8a22.32,22.32,0,0,0-16.9-8.1l14.6-7.8L155,1.7,136.6,22.9l3.2,3.9a24.115,24.115,0,0,0-7.5,4.8l-15.8-14L111,28.1l.2-10.2L86.5,25.8,87.2,39l4.2-1.1.6,6.7a19.588,19.588,0,0,0-15.9.2,20.941,20.941,0,0,0-4.4,2.5,18.6,18.6,0,0,0-.9-11.7,21.356,21.356,0,0,0-9-10,21.29,21.29,0,0,0-9.6-3.4c-8.5-1.5-18.8,0-28.9,4.3A71.321,71.321,0,0,0,13,31.9L9.1,34.4l2.4,4L18.9,51l2.3,3.8,4-2,.6-.3,18.4,41L46,97.4l4.1-1.3L60,92.9l4.4-1.4-1.1-4.4L58,66.9a36.222,36.222,0,0,0,4.2-3.6,19.36,19.36,0,0,0,.5,7.2,16.882,16.882,0,0,0,9.1,10.9,19.632,19.632,0,0,0,16.1,0,22.432,22.432,0,0,0,7.2-4.9l.7,8.1L113.2,82V66.4l36.3,18V67.1a33.536,33.536,0,0,0,4.4-.7,39.638,39.638,0,0,0,10.5-4.1l-1.5,9.3,19.6,3.1,1.1-7.1,5.1,9.5,3.1-6,1.1,9.9,22.2,3.9-1.2-7.5a21.553,21.553,0,0,0,9.3-1.2,13.553,13.553,0,0,0,2.1-1l-.9,8,14.8,2.1.1,6.1,15.4,4.8,20.1-60.5L254,30.6Zm-86.8,9,1-1.1L167,46.1l-3.2-2.9Zm-13-31.2,5.4,7.3-15.4,7.6-1.1-1.6c0,.1,11.1-13.3,11.1-13.3ZM52.3,64.8l6.1,23.6-9.9,3.2L28.1,46c-1.1.6-3.2,1.6-5,2.5L15.7,36a66.763,66.763,0,0,1,9.6-5c9.6-4.1,18.8-5.3,26.1-4a17.4,17.4,0,0,1,7.7,2.7,16.919,16.919,0,0,1,7.3,7.9c3.6,8.2-2.3,20-14.1,27.2ZM98,60.6a17.95,17.95,0,0,1-3.6,10,20.255,20.255,0,0,1-8.3,6.7c-8.6,3.7-17.2,0-19.5-8.2-2.2-7.9,3-17.3,11.3-20.9,5.3-2.3,10.7-1.7,14.5.9a12.052,12.052,0,0,1,5,7,3.553,3.553,0,0,1,.2,1A10.777,10.777,0,0,1,98,60.6Zm46.9,16.7-36.1-18,.1,18.9-9.3,1.3-.7-7.8a20.848,20.848,0,0,0,2.4-16.1,16.279,16.279,0,0,0-4.4-7.5L95.6,32.2l-4.2,1.1-.2-4,15-4.5.9,15.4,11-15.5L129,35,113.9,50.9l14.2,5.6a19.837,19.837,0,0,0,7,7.4,22.276,22.276,0,0,0,9.8,3.2V77.3ZM126.2,51.1l-5-1.9,4.7-4.5A17.368,17.368,0,0,0,126.2,51.1Zm39.2,4.8a30.19,30.19,0,0,1-12.6,6,13.224,13.224,0,0,1-3.3.5c-8.3.8-15.2-3-17.8-9.1a15.545,15.545,0,0,1-.8-2.3,16.375,16.375,0,0,1,2.4-13.5,14.235,14.235,0,0,1,2.6-2.9,20.831,20.831,0,0,1,9-4.6c7.9-1.9,14.8.5,19.1,5.7l-15,16a10.282,10.282,0,0,0,3.8-.4,13.242,13.242,0,0,0,7.3-4.8l6,5.4,1.8,1.6A18.785,18.785,0,0,1,165.4,55.9Zm31.9,21.3L194,55.6l-4.6,11.9-6.9-14.9h-.1l-2.7,17.3-11.5-2,1.6-9.6a15.936,15.936,0,0,0,1.3-1.3l3.7-3.8-3.6-3.3,3.9-23h11.6l2.9,15.9,3.3-18.4h8.3l3.5,22.4c-4.4,5-6.5,11.7-5.1,17.9a16.463,16.463,0,0,0,8.3,10.9c.4.2.9.4,1.3.6l.4,2.9ZM226,70.1a16.842,16.842,0,0,1-4.2,2.2,15.226,15.226,0,0,1-8.6.8,14.771,14.771,0,0,1-5-2.1,12.7,12.7,0,0,1-4.8-7.2,15.409,15.409,0,0,1,1.9-11.2,21.194,21.194,0,0,1,3.8-4.7,19.43,19.43,0,0,1,5.8-3.6c5.1-1.9,10.1-1.2,13.6,1.3a10.745,10.745,0,0,1,3.2,3.5,14.187,14.187,0,0,1,1.4,3.6,15.952,15.952,0,0,1-3,13.1,12.9,12.9,0,0,1-4.1,4.3Zm26,20.4L243.5,88l-.7-31.4-4.3,24.2-9.3-1.5.7-7c6.1-5.1,9.3-13.2,7.5-20.6a15.9,15.9,0,0,0-4.8-8.2l.8-8.2-3.5-.9L230,30l16,3.2,5.4,25.5,5.5-22.9,12.2,2.7L252,90.5Z" fill="url(#linear-gradient-9)"/>
    </g>
  </g>
  <path id="path198" d="M258,85.3h.4c.5,0,.9-.2.9-.7a.811.811,0,0,0-.9-.7H258v1.4Zm0,2.1h-.6V83.6a3.42,3.42,0,0,1,1.1-.1,1.737,1.737,0,0,1,1.2.3,1.039,1.039,0,0,1,.4.8.876.876,0,0,1-.7.9.907.907,0,0,1,.6.9c.1.6.2.8.2.9h-.6a2.946,2.946,0,0,1-.3-1c-.1-.5-.3-.7-.8-.7H258v1.8Zm.7-4.9a2.9,2.9,0,1,0,2.8,2.9A2.952,2.952,0,0,0,258.7,82.5Zm0-.5a3.289,3.289,0,0,1,3.3,3.4,3.4,3.4,0,1,1-6.8,0A3.523,3.523,0,0,1,258.7,82Z"/>
</svg>
