<svg xmlns="http://www.w3.org/2000/svg" xmlns:xlink="http://www.w3.org/1999/xlink" version="1.1" width="612.0800170898438" height="612.0800170898438" style="" xml:space="preserve"><rect id="backgroundrect" width="100%" height="100%" x="0" y="0" fill="none" stroke="none"/>
















<g class="currentLayer" style=""><title>Layer 1</title><g id="svg_1" class="selected" fill="#ffcb05" fill-opacity="1">
	<path d="M237.927,0C106.555,0,0.035,106.52,0.035,237.893c0,131.373,106.52,237.893,237.893,237.893   c50.518,0,97.368-15.757,135.879-42.597l0.028-0.028l176.432,176.433c3.274,3.274,8.48,3.358,11.839,0l47.551-47.551   c3.274-3.274,3.106-8.703-0.028-11.838L433.223,373.8c26.84-38.539,42.597-85.39,42.597-135.907C475.82,106.52,369.3,0,237.927,0z    M237.927,419.811c-100.475,0-181.918-81.443-181.918-181.918S137.453,55.975,237.927,55.975s181.918,81.443,181.918,181.918   S338.402,419.811,237.927,419.811z" id="svg_2" fill="#ffcb05" fill-opacity="1"/>
</g><g id="svg_3">
</g><g id="svg_4">
</g><g id="svg_5">
</g><g id="svg_6">
</g><g id="svg_7">
</g><g id="svg_8">
</g><g id="svg_9">
</g><g id="svg_10">
</g><g id="svg_11">
</g><g id="svg_12">
</g><g id="svg_13">
</g><g id="svg_14">
</g><g id="svg_15">
</g><g id="svg_16">
</g><g id="svg_17">
</g></g></svg>